<?xml version="1.0" encoding="UTF-8" standalone="no"?>
<!DOCTYPE svg PUBLIC "-//W3C//DTD SVG 1.1//EN" "http://www.w3.org/Graphics/SVG/1.1/DTD/svg11.dtd">
<svg width="100%" height="100%" viewBox="0 0 241 220" version="1.1" xmlns="http://www.w3.org/2000/svg" xmlns:xlink="http://www.w3.org/1999/xlink" xml:space="preserve" xmlns:serif="http://www.serif.com/" style="fill-rule:evenodd;clip-rule:evenodd;stroke-linejoin:round;stroke-miterlimit:2;">
    <g id="BACKGROUND" transform="matrix(1,0,0,1,-130.113,-97.167)">
        <g transform="matrix(59.0062,288.594,288.594,-59.0062,288.478,65.1037)">
            <path d="M0.17,-0.197C0.246,-0.239 0.347,-0.188 0.36,-0.112C0.373,-0.037 0.504,0.107 0.641,0.041C0.745,-0.008 0.765,-0.134 0.769,-0.194C0.77,-0.212 0.786,-0.225 0.804,-0.224C0.82,-0.222 0.833,-0.208 0.833,-0.192C0.833,-0.037 0.731,0.134 0.53,0.175C0.316,0.219 0.185,0.084 0.128,0.001C0.112,-0.021 0.102,-0.043 0.098,-0.064C0.087,-0.119 0.114,-0.166 0.17,-0.197Z" style="fill:rgb(211,212,217);fill-rule:nonzero;"/>
        </g>
        <g transform="matrix(-10.7284,-208.13,-208.13,10.7284,291.667,237.195)">
            <path d="M0.547,0.212C0.431,0.255 0.301,0.162 0.299,0.054C0.296,-0.054 0.144,-0.283 -0.062,-0.221C-0.217,-0.174 -0.272,-0.002 -0.29,0.081C-0.296,0.106 -0.321,0.121 -0.345,0.115C-0.348,0.114 -0.351,0.113 -0.354,0.112C-0.333,0.003 -0.25,-0.283 0.032,-0.284C0.349,-0.285 0.528,0.047 0.549,0.211C0.548,0.212 0.547,0.212 0.547,0.212Z" style="fill:rgb(222,223,227);fill-rule:nonzero;"/>
        </g>
        <g transform="matrix(130.35,0,0,-130.35,130.113,214.168)">
            <path d="M0.676,0.896C0.334,0.825 0,0.522 0,0.059C0,-0.434 0.358,-0.663 0.568,-0.753C0.778,-0.843 0.929,-0.758 0.988,-0.57C1.046,-0.383 0.888,-0.183 0.715,-0.188C0.541,-0.192 0.163,0.032 0.246,0.366C0.308,0.617 0.578,0.719 0.709,0.755C0.748,0.766 0.771,0.807 0.759,0.846C0.75,0.877 0.722,0.898 0.69,0.898C0.685,0.898 0.681,0.897 0.676,0.896Z" style="fill:rgb(211,54,101);fill-rule:nonzero;"/>
        </g>
        <g transform="matrix(-169.509,-285.376,-285.376,169.509,248.439,294.516)">
            <path d="M0.43,0.089C0.255,0.182 0.058,0.05 -0.001,-0.035C-0.001,-0.035 -0.001,-0.036 -0,-0.036C0.051,-0.094 0.15,-0.08 0.184,-0.021C0.217,0.039 0.368,0.121 0.464,0.026C0.536,-0.045 0.517,-0.157 0.503,-0.208C0.499,-0.223 0.508,-0.239 0.523,-0.243C0.525,-0.244 0.527,-0.244 0.529,-0.244C0.549,-0.177 0.587,0.006 0.43,0.089Z" style="fill:rgb(215,71,114);fill-rule:nonzero;"/>
        </g>
    </g>
</svg>
